<?xml version="1.0" encoding="utf-8"?>
<!-- Generator: Adobe Illustrator 23.0.5, SVG Export Plug-In . SVG Version: 6.00 Build 0)  -->
<svg version="1.1" xmlns="http://www.w3.org/2000/svg" xmlns:xlink="http://www.w3.org/1999/xlink" x="0px" y="0px"
	 viewBox="0 0 300 400" style="enable-background:new 0 0 300 400;" xml:space="preserve">
<g id="Capa_1">
	<path d="M187,24l-62.3,215.7c-0.1,0.3-0.2,0.4-0.4,0.5c-0.1,0-0.1,0-0.1,0.1c0,0,0,0,0,0l-10.5-2.9c-0.3-0.1-0.4-0.2-0.5-0.4
		c-0.1-0.1-0.1-0.2,0-0.4l62.3-215.7c0.1-0.3,0.2-0.4,0.4-0.5c0.1,0,0.1-0.1,0.1-0.1c0,0,0,0,0,0l10.5,2.9c0.3,0.1,0.4,0.2,0.5,0.4
		C187,23.7,187,23.7,187,24z"/>
</g>
<g id="Слой_3">
	<path d="M97.6,199.2c0.3,0.3,0.3,0.4,0.3,0.5c0,0.1,0,0.2-0.3,0.5l-8.4,8.4c-0.3,0.3-0.4,0.3-0.5,0.3c-0.1,0-0.2,0-0.5-0.3
		l-77.9-77.9c-0.3-0.3-0.3-0.4-0.3-0.5s0-0.2,0.3-0.5l77.9-77.9c0.3-0.3,0.4-0.3,0.5-0.3c0.1,0,0.2,0,0.5,0.3l8.4,8.4
		c0.3,0.3,0.3,0.4,0.3,0.5c0,0.1,0,0.2-0.3,0.5l-69,69L97.6,199.2z"/>
</g>
<g id="Слой_2">
	<path d="M290,130.3c0,0.1,0,0.2-0.3,0.5l-77.9,77.9c-0.3,0.3-0.4,0.3-0.5,0.3s-0.2,0-0.5-0.3l-8.4-8.4c-0.3-0.3-0.3-0.4-0.3-0.5
		c0-0.1,0-0.2,0.3-0.5l69-69l-69-69c-0.3-0.3-0.3-0.4-0.3-0.5c0-0.1,0-0.2,0.3-0.5l8.3-8.3c0.3-0.3,0.4-0.3,0.5-0.3s0.2,0,0.5,0.3
		l77.9,77.9C290,130,290,130.2,290,130.3z"/>
</g>
<g id="Слой_4">
	<g>
		<path d="M107.2,361.4c-2.5,1.3-7.6,2.5-14,2.5c-14.9,0-26.2-9.4-26.2-26.8c0-16.6,11.2-27.8,27.7-27.8c6.6,0,10.8,1.4,12.6,2.4
			l-1.7,5.6c-2.6-1.3-6.3-2.2-10.7-2.2c-12.4,0-20.7,7.9-20.7,21.9c0,13,7.5,21.3,20.4,21.3c4.2,0,8.4-0.9,11.2-2.2L107.2,361.4z"/>
		<path d="M149.1,343.8c0,14.1-9.8,20.2-19,20.2c-10.3,0-18.2-7.6-18.2-19.6c0-12.7,8.3-20.2,18.9-20.2
			C141.7,324.2,149.1,332.1,149.1,343.8z M118.9,344.2c0,8.3,4.8,14.6,11.6,14.6c6.6,0,11.6-6.2,11.6-14.8c0-6.4-3.2-14.6-11.4-14.6
			S118.9,336.9,118.9,344.2z"/>
		<path d="M190.7,307.3v46c0,3.4,0.1,7.2,0.3,9.8h-6.2l-0.3-6.6h-0.2c-2.1,4.2-6.8,7.5-13,7.5c-9.2,0-16.3-7.8-16.3-19.3
			c-0.1-12.7,7.8-20.4,17.1-20.4c5.8,0,9.8,2.8,11.5,5.8h0.2v-22.7H190.7z M183.8,340.6c0-0.9-0.1-2-0.3-2.9c-1-4.4-4.8-8-10-8
			c-7.2,0-11.4,6.3-11.4,14.7c0,7.7,3.8,14.1,11.2,14.1c4.6,0,8.9-3.1,10.1-8.3c0.2-0.9,0.3-1.9,0.3-3V340.6z"/>
		<path d="M206,345.4c0.2,9.4,6.1,13.2,13.1,13.2c5,0,7.9-0.9,10.5-2l1.2,5c-2.4,1.1-6.6,2.4-12.7,2.4c-11.7,0-18.7-7.7-18.7-19.2
			c0-11.5,6.8-20.5,17.9-20.5c12.4,0,15.7,10.9,15.7,17.9c0,1.4-0.2,2.5-0.2,3.2H206z M226.3,340.4c0.1-4.4-1.8-11.2-9.6-11.2
			c-7,0-10.1,6.4-10.6,11.2H226.3z"/>
	</g>
</g>
</svg>
