<?xml version="1.0" encoding="utf-8"?>
<!-- Generator: Adobe Illustrator 23.0.5, SVG Export Plug-In . SVG Version: 6.00 Build 0)  -->
<svg version="1.1" xmlns="http://www.w3.org/2000/svg" xmlns:xlink="http://www.w3.org/1999/xlink" x="0px" y="0px"
	 viewBox="0 0 300 400" style="enable-background:new 0 0 300 400;" xml:space="preserve">
<style type="text/css">
	.st0{fill:none;stroke:#000000;stroke-width:6;stroke-miterlimit:10;}
</style>
<g id="Capa_1">
	<g>
		<g>
			<circle cx="61.4" cy="99.7" r="5.5"/>
		</g>
	</g>
</g>
<g id="Слой_4">
	<g>
		<path d="M111.8,305.2c3.4-0.6,7.9-1.1,13.6-1.1c7,0,12.2,1.6,15.4,4.6c3,2.6,4.8,6.6,4.8,11.5c0,5-1.5,8.9-4.2,11.8
			c-3.8,4-9.9,6-16.8,6c-2.1,0-4.1-0.1-5.7-0.5v22h-7.1V305.2z M118.9,331.8c1.6,0.4,3.5,0.6,5.9,0.6c8.6,0,13.8-4.2,13.8-11.8
			c0-7.3-5.1-10.8-13-10.8c-3.1,0-5.5,0.2-6.7,0.6V331.8z"/>
		<path d="M154.6,301.7h7.2v24.6h0.2c1.1-2,2.9-3.8,5.1-5.1c2.1-1.2,4.7-2,7.3-2c5.3,0,13.8,3.3,13.8,16.9v23.5H181v-22.7
			c0-6.4-2.4-11.8-9.1-11.8c-4.7,0-8.3,3.3-9.6,7.2c-0.4,1-0.5,2-0.5,3.4v23.8h-7.2V301.7z"/>
	</g>
</g>
<g id="Слой_2">
	<path class="st0" d="M150,102.1c25.9,0,46.9,21.1,46.9,46.9S175.8,196,150,196S103,174.9,103,149.1S124.1,102.1,150,102.1z"/>
</g>
<g id="Слой_3">
	<path class="st0" d="M96,71.1c3.1,0,5.8-2.1,6.5-5.2l2.2-9.7c2.8-12.1,13.4-20.5,25.8-20.5h38.7c12.4,0,23,8.4,25.8,20.5l2.2,9.7
		c0.7,3,3.4,5.2,6.5,5.2h48.8c9.8,0,17.7,7.9,17.7,17.7V207c0,10.7-8.6,19.3-19.3,19.3H48.8c-10.7,0-19.3-8.6-19.3-19.3V88.8
		c0-9.8,7.9-17.7,17.7-17.7L96,71.1L96,71.1z"/>
</g>
</svg>
